<?xml version="1.0" encoding="UTF-8"?>
<svg version="1.1" xmlns="http://www.w3.org/2000/svg" width="1024" height="1024">
<path d="M0 0 C105.6 0 211.2 0 320 0 C315.09320264 9.81359472 310.18946482 19.46293569 304.8125 29 C303.50152792 31.34185566 302.19139002 33.68415183 300.8828125 36.02734375 C300.55671494 36.61072006 300.23061737 37.19409637 299.89463806 37.79515076 C296.05544877 44.67380539 292.31976892 51.60780394 288.58129883 58.54150391 C284.86457094 65.42690275 281.07792223 72.27004982 277.25585938 79.09741211 C274.77117183 83.5546563 272.39957535 88.04253743 270.23046875 92.6640625 C269.16337746 94.68984216 268.0181049 96.56604883 266.78515625 98.4921875 C263.30661595 103.99726672 260.30667578 109.75368284 257.25 115.5 C253.07994875 123.29139736 248.89367427 131.06588077 244.53295898 138.75219727 C240.91888579 145.12483052 237.36593726 151.53089204 233.8125 157.9375 C228.89395907 166.80233544 223.95872744 175.65755835 219 184.5 C212.18319325 196.65746094 205.41263441 208.84023267 198.64990234 221.02783203 C197.23285045 223.58053842 195.81434692 226.13242396 194.39453125 228.68359375 C189.36836774 237.71572802 184.36774256 246.76185655 179.375 255.8125 C179.03545288 256.42794678 178.69590576 257.04339355 178.34606934 257.67749023 C174.85963475 263.99709001 171.37476413 270.3175413 167.89584351 276.64128113 C160.42125798 290.2273793 152.89411006 303.77997582 145.24609375 317.26953125 C141.62860089 323.65065025 138.02893853 330.04168486 134.4375 336.4375 C133.56134033 337.99259277 133.56134033 337.99259277 132.66748047 339.57910156 C129.63234404 344.98967781 126.71854108 350.42333504 124 356 C126.79173516 356.02736995 129.58319304 356.04701454 132.375 356.0625 C133.14972656 356.07087891 133.92445313 356.07925781 134.72265625 356.08789062 C138.73080076 356.10445321 142.63104136 355.97000602 146.61328125 355.50390625 C152.96817149 354.80899455 159.32763787 354.85026608 165.7121582 354.86962891 C167.79841467 354.87496398 169.88445337 354.86966648 171.97070312 354.86328125 C180.35168732 354.85956578 188.65136996 355.21325564 197 356 C197.33 355.34 197.66 354.68 198 354 C198.66 354.33 199.32 354.66 200 355 C202.1685124 355.08676242 204.33978263 355.10703372 206.51000977 355.09765625 C207.5128878 355.09546585 207.5128878 355.09546585 208.536026 355.0932312 C209.9907206 355.08942125 211.44541052 355.08330053 212.90008736 355.07516479 C215.2088679 355.06240348 217.51759093 355.05588496 219.82640076 355.05102539 C225.56738226 355.03764774 231.30830994 355.01357809 237.04925537 354.98962402 C241.88991434 354.96980336 246.73055214 354.95419233 251.57124138 354.94406128 C253.83387409 354.93762804 256.09641952 354.92511395 258.35902405 354.91235352 C265.32690669 354.888064 272.08631361 355.12285439 279 356 C280.81845072 356.00364054 282.63840277 355.96019526 284.453125 355.84375 C285.86839478 355.76338501 285.86839478 355.76338501 287.31225586 355.68139648 C288.76643921 355.59160522 288.76643921 355.59160522 290.25 355.5 C298.62324409 355.05012837 306.66082595 354.95960401 315 356 C314.40088616 359.94338775 313.18160695 362.88155036 311.26171875 366.3671875 C310.69453125 367.40673584 310.12734375 368.44628418 309.54296875 369.51733398 C308.62451172 371.17937866 308.62451172 371.17937866 307.6875 372.875 C306.4088397 375.21674399 305.1314034 377.55911748 303.85546875 379.90234375 C303.53210541 380.49473343 303.20874207 381.08712311 302.87557983 381.69746399 C299.18304888 388.47310989 295.63007526 395.31991791 292.0847168 402.17333984 C288.80523046 408.50019874 285.41466702 414.73977712 282 421 C261.21 421.33 240.42 421.66 219 422 C219 422.33 219 422.66 219 423 C211.41 423 203.82 423 196 423 C196 422.67 196 422.34 196 422 C193.03 422 190.06 422 187 422 C187 422.33 187 422.66 187 423 C185.0085944 423.38133299 183.00720923 423.71325582 181 424 C180.67 423.67 180.34 423.34 180 423 C179.030625 423.165 178.06125 423.33 177.0625 423.5 C172.30203874 424.2818637 167.75099663 423.5915992 163 423 C161.99677039 423 160.99358302 423.0158953 159.99047852 423.03173828 C157.18119414 423.07323281 154.37197067 423.09924192 151.5625 423.125 C150.58216797 423.14175781 149.60183594 423.15851563 148.59179688 423.17578125 C147.65529297 423.18222656 146.71878906 423.18867187 145.75390625 423.1953125 C144.89095947 423.20578613 144.0280127 423.21625977 143.13891602 423.22705078 C141 423 141 423 139 421 C139 421.66 139 422.32 139 423 C132.66666667 423 126.33333333 423 120 423 C120 422.67 120 422.34 120 422 C118.02 422 116.04 422 114 422 C114 422.33 114 422.66 114 423 C109.05 423 104.1 423 99 423 C99 422.67 99 422.34 99 422 C90.75 422 82.5 422 74 422 C74 422.33 74 422.66 74 423 C67 423 60 423 53 423 C53 422.67 53 422.34 53 422 C41.12 421.67 29.24 421.34 17 421 C20.07364257 414.85271486 23.14378326 408.79538238 26.5 402.8125 C26.91362793 402.07 27.32725586 401.3275 27.75341797 400.5625 C30.32390029 395.95842613 32.92488331 391.37236242 35.5390625 386.79296875 C36.43141602 385.22615356 36.43141602 385.22615356 37.34179688 383.62768555 C38.51888015 381.56311628 39.69979555 379.50072655 40.88476562 377.44067383 C41.42037109 376.50118896 41.95597656 375.5617041 42.5078125 374.59375 C42.98879395 373.75521484 43.46977539 372.91667969 43.96533203 372.05273438 C45.15003335 370.08546579 45.15003335 370.08546579 45 368 C45.66 368 46.32 368 47 368 C47.2475 367.175 47.495 366.35 47.75 365.5 C49.18786395 361.47398093 51.03047273 357.78558488 53 354 C53.33 353.34 53.66 352.68 54 352 C54.67591187 351.12686157 54.67591187 351.12686157 55.36547852 350.23608398 C57.2392309 347.67272355 58.67267174 345.03241047 60.15234375 342.22265625 C61.06125366 340.50743774 61.06125366 340.50743774 61.98852539 338.75756836 C62.46541306 337.85311478 62.46541306 337.85311478 62.95193481 336.9303894 C68.44488909 326.5198846 74.06535662 316.20017473 79.96655273 306.01391602 C83.41358074 300.06313245 86.72544537 294.04725569 90 288 C90.95269264 286.24846268 91.9058124 284.49715761 92.859375 282.74609375 C93.32956055 281.88234131 93.79974609 281.01858887 94.28417969 280.12866211 C98.4122746 272.54971637 102.55122871 264.97755328 106.75 257.4375 C116.38953493 240.12604684 125.97148688 222.78201301 135.4375 205.375 C135.98704346 204.36808105 136.53658691 203.36116211 137.1027832 202.32373047 C137.85434692 200.93758545 137.85434692 200.93758545 138.62109375 199.5234375 C139.0586499 198.71825684 139.49620605 197.91307617 139.94702148 197.08349609 C141.11469143 194.89872512 141.11469143 194.89872512 142 192 C142.99129066 190.66017889 143.99234033 189.32755406 145 188 C145.92308431 186.4062452 146.81421876 184.79373099 147.6796875 183.16796875 C148.18975342 182.21615723 148.69981934 181.2643457 149.2253418 180.28369141 C149.769729 179.26194824 150.31411621 178.24020508 150.875 177.1875 C155.38934802 168.78068168 159.97489554 160.42236405 164.6875 152.125 C165.22197754 151.18325928 165.75645508 150.24151855 166.30712891 149.27124023 C167.35941871 147.41741289 168.41182501 145.56365166 169.46435547 143.70996094 C171.90768785 139.39819791 174.33402076 135.07714018 176.75 130.75 C177.16854248 130.00508301 177.58708496 129.26016602 178.01831055 128.49267578 C179.5810855 125.68728802 180.98194927 123.05415219 182 120 C182.99200003 118.66070402 183.99303313 117.32807963 185 116 C185.95817374 114.34764784 186.88434958 112.67650099 187.78515625 110.9921875 C188.31109375 110.01386963 188.83703125 109.03555176 189.37890625 108.02758789 C189.93449219 106.98723389 190.49007812 105.94687988 191.0625 104.875 C192.22969494 102.70401088 193.3976714 100.53344176 194.56640625 98.36328125 C195.43483154 96.74993896 195.43483154 96.74993896 196.32080078 95.10400391 C199.77537286 88.71821889 203.31758565 82.38114259 206.859375 76.04345703 C208.91226701 72.36565179 210.95571477 68.6825942 213 65 C212.04641602 65.15774902 211.09283203 65.31549805 210.11035156 65.47802734 C205.49314418 66.1346319 200.89184856 66.24568397 196.234375 66.3515625 C194.86155365 66.38629166 194.86155365 66.38629166 193.46099854 66.42172241 C191.5381769 66.46910651 189.61530193 66.51436926 187.69238281 66.55761719 C184.74522368 66.62510938 181.79844791 66.70279714 178.8515625 66.78125 C176.9791813 66.82613544 175.10678575 66.87042712 173.234375 66.9140625 C171.91249176 66.94990952 171.91249176 66.94990952 170.56390381 66.98648071 C169.74585266 67.0033493 168.92780151 67.0202179 168.08496094 67.03759766 C167.00743561 67.06305161 167.00743561 67.06305161 165.90814209 67.08901978 C164 67 164 67 161 66 C159.29983265 65.90987784 157.59630645 65.87803781 155.89375305 65.87974548 C154.30991318 65.87768349 154.30991318 65.87768349 152.69407654 65.87557983 C151.53602005 65.87917511 150.37796356 65.88277039 149.18481445 65.88647461 C147.96518005 65.88632858 146.74554565 65.88618256 145.48895264 65.8860321 C142.14417149 65.88660983 138.79945189 65.89162874 135.45468163 65.89860606 C131.95930681 65.90485289 128.46393118 65.90544445 124.96855164 65.90663147 C118.34939933 65.90974086 111.73026353 65.91794897 105.1111185 65.92798096 C97.57552349 65.93915426 90.03992769 65.94465562 82.50432646 65.94967639 C67.00287475 65.9601319 51.5014395 65.97772376 36 66 C35.53102295 65.14245117 35.0620459 64.28490234 34.57885742 63.40136719 C32.83197846 60.20905795 31.08102596 57.01899838 29.32885742 53.82958984 C28.5722162 52.45096526 27.8166693 51.07173947 27.06225586 49.69189453 C25.97539355 47.70444823 24.88456648 45.71922346 23.79296875 43.734375 C23.45847214 43.12068054 23.12397552 42.50698608 22.77934265 41.87469482 C21.04392213 38.7286565 19.1915608 35.84271102 17 33 C15.94516403 30.95468144 14.92851499 28.88949211 13.9375 26.8125 C10.71267034 20.15999863 7.04098391 13.82569947 3.20092773 7.51098633 C0 2.20175225 0 2.20175225 0 0 Z M145 421 C145 421.33 145 421.66 145 422 C149.29 422 153.58 422 158 422 C158 421.67 158 421.34 158 421 C153.71 421 149.42 421 145 421 Z M166 421 C166 421.33 166 421.66 166 422 C168.64 422 171.28 422 174 422 C174 421.67 174 421.34 174 421 C171.36 421 168.72 421 166 421 Z " fill="#000000" transform="translate(419,304)"/>
<path d="M0 0 C9.31840011 -0.13901003 18.63644348 -0.24562484 27.95565414 -0.31087303 C32.28298305 -0.34218905 36.60960275 -0.384665 40.93652344 -0.45263672 C45.11221534 -0.51782239 49.28722512 -0.55370401 53.46338654 -0.56926346 C55.0566914 -0.5803515 56.64995884 -0.60200486 58.24297333 -0.63438034 C60.47497741 -0.6779388 62.70416283 -0.6839352 64.93652344 -0.68115234 C66.20671326 -0.69447601 67.47690308 -0.70779968 68.7855835 -0.7215271 C72 0 72 0 74.44146729 2.91757202 C76 6 76 6 76 8 C76.99 8.495 76.99 8.495 78 9 C78.82946843 10.51092762 79.58520237 12.06232336 80.3125 13.625 C83.29472628 19.74072491 86.5707084 25.65060124 89.9375 31.5625 C94.79489821 40.10059433 99.61074279 48.65954196 104.375 57.25 C105.00148438 58.37946045 105.62796875 59.5089209 106.2734375 60.67260742 C107.54821292 62.97140681 108.82278934 65.27031656 110.09716797 67.56933594 C111.97002132 70.94595067 113.84575707 74.3209452 115.72265625 77.6953125 C121.85207057 88.71584305 127.9663557 99.74438364 134.05117798 110.7895813 C139.59520816 120.85127921 145.15340284 130.90492786 150.75 140.9375 C151.32242432 141.96762207 151.89484863 142.99774414 152.48461914 144.05908203 C155.15723504 148.83886783 157.86750665 153.50654473 161 158 C161.29543701 157.45400146 161.59087402 156.90800293 161.89526367 156.34545898 C167.89481869 145.27050829 173.95017542 134.2283377 180.125 123.25 C180.68082764 122.25669678 181.23665527 121.26339355 181.80932617 120.23999023 C182.32857666 119.32032471 182.84782715 118.40065918 183.3828125 117.453125 C183.84059082 116.64004883 184.29836914 115.82697266 184.77001953 114.98925781 C186 113 186 113 188 111 C190.822052 110.75949097 190.822052 110.75949097 194.46923828 110.77294922 C195.13277313 110.77265717 195.79630798 110.77236511 196.47994995 110.77206421 C198.67686972 110.77345944 200.87345186 110.78902933 203.0703125 110.8046875 C204.59202896 110.80841695 206.11374781 110.81126424 207.63546753 110.81326294 C211.64356092 110.82090477 215.6515097 110.84055787 219.6595459 110.8626709 C223.74827112 110.88311756 227.83701966 110.89226212 231.92578125 110.90234375 C239.95058724 110.92380333 247.97527564 110.95794579 256 111 C256.33 111.66 256.66 112.32 257 113 C256.21826172 114.8815918 256.21826172 114.8815918 254.9296875 117.19921875 C254.45233154 118.06635498 253.97497559 118.93349121 253.4831543 119.8269043 C252.95246338 120.77090088 252.42177246 121.71489746 251.875 122.6875 C251.32948486 123.67210205 250.78396973 124.6567041 250.22192383 125.67114258 C248.49141568 128.78655131 246.74810446 131.89443441 245 135 C244.46971191 135.94230469 243.93942383 136.88460937 243.39306641 137.85546875 C241.29045274 141.58584871 239.18342747 145.3136767 237.06982422 149.0378418 C232.18754804 157.64279943 227.38590983 166.29141073 222.59106445 174.9453125 C218.55863621 182.21562742 214.48254857 189.45941089 210.375 196.6875 C205.42758412 205.39977869 200.63032116 214.18546738 195.88110352 223.00708008 C191.05716147 231.94588177 186.06781691 240.78574701 181.05078125 249.6171875 C178.33729479 254.39515463 175.65985169 259.19201484 173 264 C169.30921113 270.66783549 165.57027247 277.30719954 161.8125 283.9375 C156.99798187 292.43438116 152.23462525 300.95835699 147.5 309.5 C142.32227015 318.83989423 137.10279524 328.15446046 131.83935547 337.44628906 C123.58289823 352.02539471 115.40779682 366.64990916 107.28515625 381.30395508 C100.60888815 393.3483728 93.85418786 405.34274463 86.97705078 417.27368164 C86.28446537 418.49738764 85.62882922 419.74234157 85 421 C61.9 421.33 38.8 421.66 15 422 C15 418.7298933 15.48208759 417.80848733 17.09765625 415.0625 C17.79338745 413.86536377 17.79338745 413.86536377 18.50317383 412.64404297 C19.01775146 411.77150879 19.5323291 410.89897461 20.0625 410 C21.17341939 408.08683345 22.28271807 406.17272513 23.390625 404.2578125 C23.98037109 403.23977539 24.57011719 402.22173828 25.17773438 401.17285156 C28.27965214 395.77192401 31.29553959 390.32370557 34.3125 384.875 C34.93729248 383.74795654 35.56208496 382.62091309 36.20581055 381.4597168 C37.48772404 379.14671674 38.76921492 376.83348241 40.05029297 374.52001953 C61.02236077 336.64906405 61.02236077 336.64906405 69.17578125 322.47265625 C70.00106323 321.03575439 70.00106323 321.03575439 70.84301758 319.56982422 C71.92755425 317.68327052 73.01453714 315.79812047 74.10424805 313.91455078 C74.84155151 312.63233643 74.84155151 312.63233643 75.59375 311.32421875 C76.03396484 310.56197998 76.47417969 309.79974121 76.92773438 309.0144043 C78.1273745 306.89557729 78.1273745 306.89557729 79 304 C79.82560444 302.54590776 80.6846753 301.11067629 81.5625 299.6875 C85.05339644 293.94069407 88.39632258 288.11524482 91.71337891 282.26708984 C92.66239761 280.59487207 93.61279974 278.92343923 94.56396484 277.25244141 C96.29489778 274.21123654 98.02273931 271.16829182 99.75 268.125 C100.30502197 267.15022705 100.86004395 266.1754541 101.43188477 265.17114258 C103.82355868 260.94928675 106.16006897 256.73981634 108.265625 252.3671875 C110 249 110 249 112 248 C112.41185547 246.73349609 112.41185547 246.73349609 112.83203125 245.44140625 C114.51191001 240.49166314 117.24897815 236.26725644 119.98632812 231.83398438 C120.38658203 231.15529297 120.78683594 230.47660156 121.19921875 229.77734375 C121.56877686 229.17140381 121.93833496 228.56546387 122.3190918 227.94116211 C123.55898738 224.40641497 122.320497 221.69598509 120.80761719 218.41064453 C120.30907227 217.49395996 119.81052734 216.57727539 119.296875 215.6328125 C118.73564941 214.59471436 118.17442383 213.55661621 117.59619141 212.48706055 C116.98694824 211.37758057 116.37770508 210.26810059 115.75 209.125 C115.11211597 207.9530721 114.47458869 206.78094996 113.83740234 205.60864258 C109.32215268 197.32261356 104.70238891 189.0962155 100.03588867 180.89453125 C95.64606877 173.17361659 91.34335662 165.40660007 87.0625 157.625 C82.0765151 148.56347182 77.0646277 139.51793138 72 130.5 C66.9821321 121.5628168 62.00823277 112.60222593 57.0625 103.625 C46.07370228 83.68215858 35.03755958 63.76766601 23.8046875 43.9609375 C23.10424316 42.72102051 23.10424316 42.72102051 22.38964844 41.45605469 C21.43952329 39.77681032 20.48419639 38.10050132 19.52441406 36.42675781 C18.83557129 35.21391113 18.83557129 35.21391113 18.1328125 33.9765625 C17.7217627 33.25807129 17.31071289 32.53958008 16.88720703 31.79931641 C16 30 16 30 16 28 C15.34 27.67 14.68 27.34 14 27 C13.0661807 25.30187637 12.20351459 23.56441493 11.375 21.8125 C8.65584769 16.21266157 5.68093755 10.82777369 2.54052734 5.45825195 C0 1.09501082 0 1.09501082 0 0 Z " fill="#000000" transform="translate(282,304)"/>
<path d="M0 0 C0.33 0.66 0.66 1.32 1 2 C87.79 2 174.58 2 264 2 C264 2.33 264 2.66 264 3 C243.21 3.33 222.42 3.66 201 4 C201 4.33 201 4.66 201 5 C193.41 5 185.82 5 178 5 C178 4.67 178 4.34 178 4 C175.03 4 172.06 4 169 4 C169 4.33 169 4.66 169 5 C167.0085944 5.38133299 165.00720923 5.71325582 163 6 C162.67 5.67 162.34 5.34 162 5 C161.030625 5.165 160.06125 5.33 159.0625 5.5 C154.30203874 6.2818637 149.75099663 5.5915992 145 5 C143.99677039 5 142.99358302 5.0158953 141.99047852 5.03173828 C139.18119414 5.07323281 136.37197067 5.09924192 133.5625 5.125 C132.09200195 5.15013672 132.09200195 5.15013672 130.59179688 5.17578125 C129.65529297 5.18222656 128.71878906 5.18867187 127.75390625 5.1953125 C126.45948608 5.21102295 126.45948608 5.21102295 125.13891602 5.22705078 C123 5 123 5 121 3 C121 3.66 121 4.32 121 5 C114.66666667 5 108.33333333 5 102 5 C102 4.67 102 4.34 102 4 C100.02 4 98.04 4 96 4 C96 4.33 96 4.66 96 5 C91.05 5 86.1 5 81 5 C81 4.67 81 4.34 81 4 C72.75 4 64.5 4 56 4 C56 4.33 56 4.66 56 5 C49 5 42 5 35 5 C35 4.67 35 4.34 35 4 C23.12 3.67 11.24 3.34 -1 3 C-0.67 2.01 -0.34 1.02 0 0 Z M127 3 C127 3.33 127 3.66 127 4 C131.29 4 135.58 4 140 4 C140 3.67 140 3.34 140 3 C135.71 3 131.42 3 127 3 Z M148 3 C148 3.33 148 3.66 148 4 C150.64 4 153.28 4 156 4 C156 3.67 156 3.34 156 3 C153.36 3 150.72 3 148 3 Z " fill="#161717" transform="translate(437,722)"/>
<path d="M0 0 C23.1 0.33 46.2 0.66 70 1 C70 1.33 70 1.66 70 2 C35.35 2.495 35.35 2.495 0 3 C0 2.01 0 1.02 0 0 Z " fill="#1C1D1D" transform="translate(297,723)"/>
<path d="M0 0 C16.335 0.495 16.335 0.495 33 1 C33 1.33 33 1.66 33 2 C16.665 2.495 16.665 2.495 0 3 C0 2.01 0 1.02 0 0 Z " fill="#232525" transform="translate(297,723)"/>
<path d="M0 0 C5.94 0 11.88 0 18 0 C18 0.33 18 0.66 18 1 C12.06 1 6.12 1 0 1 C0 0.67 0 0.34 0 0 Z " fill="#191919" transform="translate(667,726)"/>
<path d="M0 0 C4.95 0 9.9 0 15 0 C10.80866878 2.09566561 9.68835147 2.15337517 5.25 1.625 C4.26515625 1.51414062 3.2803125 1.40328125 2.265625 1.2890625 C1.51796875 1.19367187 0.7703125 1.09828125 0 1 C0 0.67 0 0.34 0 0 Z " fill="#131414" transform="translate(502,726)"/>
<path d="M0 0 C3.3 0 6.6 0 10 0 C10 0.33 10 0.66 10 1 C6.7 1 3.4 1 0 1 C0 0.67 0 0.34 0 0 Z " fill="#161718" transform="translate(654,726)"/>
<path d="M0 0 C2.31 0 4.62 0 7 0 C5.02 0.99 5.02 0.99 3 2 C2.01 1.34 1.02 0.68 0 0 Z " fill="#191A1A" transform="translate(350,726)"/>
<path d="M0 0 C2.31 0 4.62 0 7 0 C7 0.33 7 0.66 7 1 C5.02 1.33 3.04 1.66 1 2 C0.67 1.34 0.34 0.68 0 0 Z " fill="#161516" transform="translate(607,726)"/>
<path d="M0 0 C1.65 0 3.3 0 5 0 C5 0.33 5 0.66 5 1 C3.35 1 1.7 1 0 1 C0 0.67 0 0.34 0 0 Z " fill="#131413" transform="translate(496,726)"/>
<path d="M0 0 C1.65 0 3.3 0 5 0 C5 0.33 5 0.66 5 1 C3.35 1 1.7 1 0 1 C0 0.67 0 0.34 0 0 Z " fill="#151616" transform="translate(464,726)"/>
<path d="M0 0 C1.65 0 3.3 0 5 0 C5 0.33 5 0.66 5 1 C3.35 1 1.7 1 0 1 C0 0.67 0 0.34 0 0 Z " fill="#181A19" transform="translate(344,726)"/>
<path d="M0 0 C0.99 0.495 0.99 0.495 2 1 C1.67 1.99 1.34 2.98 1 4 C0.67 2.68 0.34 1.36 0 0 Z " fill="#141314" transform="translate(369,464)"/>
<path d="M0 0 C4 1 4 1 4 1 Z " fill="#1E1E1D" transform="translate(691,726)"/>
<path d="M0 0 C4 1 4 1 4 1 Z " fill="#1B1A1B" transform="translate(686,726)"/>
<path d="M0 0 C4 1 4 1 4 1 Z " fill="#131313" transform="translate(534,726)"/>
<path d="M0 0 C0.66 0 1.32 0 2 0 C1.67 0.99 1.34 1.98 1 3 C0.67 2.01 0.34 1.02 0 0 Z " fill="#191A18" transform="translate(289,321)"/>
<path d="M0 0 C3 1 3 1 3 1 Z " fill="#161516" transform="translate(647,726)"/>
<path d="M0 0 C3 1 3 1 3 1 Z " fill="#171716" transform="translate(639,726)"/>
<path d="M0 0 C3 1 3 1 3 1 Z " fill="#171816" transform="translate(456,726)"/>
<path d="M0 0 C3 1 3 1 3 1 Z " fill="#1C1D1C" transform="translate(361,726)"/>
<path d="M0 0 C3 1 3 1 3 1 Z " fill="#1C1B1B" transform="translate(337,726)"/>
<path d="M0 0 C3 1 3 1 3 1 Z " fill="#131214" transform="translate(441,458)"/>
<path d="M0 0 C0.33 0.66 0.66 1.32 1 2 C0.34 1.67 -0.32 1.34 -1 1 C-0.67 0.67 -0.34 0.34 0 0 Z " fill="#121313" transform="translate(362,451)"/>
<path d="M0 0 C0.33 0.66 0.66 1.32 1 2 C0.34 1.67 -0.32 1.34 -1 1 C-0.67 0.67 -0.34 0.34 0 0 Z " fill="#100F0E" transform="translate(625,378)"/>
<path d="M0 0 C2 1 2 1 2 1 Z " fill="#201E21" transform="translate(696,726)"/>
<path d="M0 0 C2 1 2 1 2 1 Z " fill="#181717" transform="translate(651,726)"/>
<path d="M0 0 C2 1 2 1 2 1 Z " fill="#181817" transform="translate(643,726)"/>
<path d="M0 0 C2 1 2 1 2 1 Z " fill="#212122" transform="translate(312,726)"/>
<path d="M0 0 C2 1 2 1 2 1 Z " fill="#232425" transform="translate(305,726)"/>
<path d="" fill="#212020" transform="translate(0,0)"/>
<path d="M0 0 C2 1 2 1 2 1 Z " fill="#262728" transform="translate(730,658)"/>
<path d="M0 0 C2 1 2 1 2 1 Z " fill="#131413" transform="translate(550,658)"/>
<path d="" fill="#1A1A17" transform="translate(0,0)"/>
<path d="M0 0 C2 1 2 1 2 1 Z " fill="#121212" transform="translate(446,585)"/>
<path d="" fill="#0F1112" transform="translate(0,0)"/>
<path d="" fill="#141412" transform="translate(0,0)"/>
<path d="" fill="#131212" transform="translate(0,0)"/>
<path d="" fill="#141414" transform="translate(0,0)"/>
<path d="" fill="#111110" transform="translate(0,0)"/>
<path d="" fill="#161615" transform="translate(0,0)"/>
<path d="" fill="#121313" transform="translate(0,0)"/>
<path d="" fill="#101110" transform="translate(0,0)"/>
<path d="M0 0 C2 1 2 1 2 1 Z " fill="#121010" transform="translate(600,419)"/>
<path d="" fill="#121415" transform="translate(0,0)"/>
<path d="" fill="#121414" transform="translate(0,0)"/>
<path d="" fill="#101010" transform="translate(0,0)"/>
<path d="" fill="#121413" transform="translate(0,0)"/>
<path d="" fill="#151414" transform="translate(0,0)"/>
<path d="M0 0 C2 1 2 1 2 1 Z " fill="#151513" transform="translate(550,371)"/>
<path d="" fill="#121211" transform="translate(0,0)"/>
<path d="" fill="#151415" transform="translate(0,0)"/>
<path d="" fill="#131212" transform="translate(0,0)"/>
<path d="" fill="#202020" transform="translate(0,0)"/>
<path d="" fill="#656466" transform="translate(0,0)"/>
<path d="" fill="#201D22" transform="translate(0,0)"/>
<path d="" fill="#272828" transform="translate(0,0)"/>
<path d="" fill="#282D2D" transform="translate(0,0)"/>
<path d="" fill="#151817" transform="translate(0,0)"/>
<path d="" fill="#151516" transform="translate(0,0)"/>
<path d="" fill="#151617" transform="translate(0,0)"/>
<path d="" fill="#191717" transform="translate(0,0)"/>
<path d="" fill="#171A19" transform="translate(0,0)"/>
<path d="" fill="#191C1C" transform="translate(0,0)"/>
<path d="" fill="#1E1E1B" transform="translate(0,0)"/>
<path d="" fill="#1B1A1E" transform="translate(0,0)"/>
<path d="" fill="#1A1C1C" transform="translate(0,0)"/>
<path d="" fill="#1D1E1D" transform="translate(0,0)"/>
<path d="" fill="#1D1C1D" transform="translate(0,0)"/>
<path d="" fill="#1B1E1F" transform="translate(0,0)"/>
<path d="" fill="#1D1F1F" transform="translate(0,0)"/>
<path d="" fill="#1F1F22" transform="translate(0,0)"/>
<path d="" fill="#222425" transform="translate(0,0)"/>
<path d="" fill="#1F2324" transform="translate(0,0)"/>
<path d="" fill="#1F1F20" transform="translate(0,0)"/>
<path d="" fill="#2D2B2C" transform="translate(0,0)"/>
<path d="" fill="#282724" transform="translate(0,0)"/>
<path d="" fill="#181719" transform="translate(0,0)"/>
<path d="" fill="#262523" transform="translate(0,0)"/>
<path d="" fill="#151415" transform="translate(0,0)"/>
<path d="" fill="#1E1D1D" transform="translate(0,0)"/>
<path d="" fill="#181617" transform="translate(0,0)"/>
<path d="" fill="#1C201D" transform="translate(0,0)"/>
<path d="" fill="#1E1F21" transform="translate(0,0)"/>
<path d="" fill="#161517" transform="translate(0,0)"/>
<path d="" fill="#161514" transform="translate(0,0)"/>
<path d="" fill="#1F1D20" transform="translate(0,0)"/>
<path d="" fill="#1B1B19" transform="translate(0,0)"/>
<path d="" fill="#1C1E1E" transform="translate(0,0)"/>
<path d="" fill="#151513" transform="translate(0,0)"/>
<path d="" fill="#656665" transform="translate(0,0)"/>
<path d="" fill="#232222" transform="translate(0,0)"/>
<path d="" fill="#181A1B" transform="translate(0,0)"/>
<path d="" fill="#131212" transform="translate(0,0)"/>
<path d="" fill="#121412" transform="translate(0,0)"/>
<path d="" fill="#262525" transform="translate(0,0)"/>
<path d="" fill="#141312" transform="translate(0,0)"/>
<path d="" fill="#2A2D2B" transform="translate(0,0)"/>
<path d="" fill="#1D1C1E" transform="translate(0,0)"/>
<path d="" fill="#1D1E1C" transform="translate(0,0)"/>
<path d="" fill="#171819" transform="translate(0,0)"/>
<path d="" fill="#18181A" transform="translate(0,0)"/>
<path d="" fill="#242728" transform="translate(0,0)"/>
<path d="" fill="#151313" transform="translate(0,0)"/>
<path d="" fill="#161617" transform="translate(0,0)"/>
<path d="" fill="#191816" transform="translate(0,0)"/>
<path d="" fill="#141312" transform="translate(0,0)"/>
<path d="" fill="#141312" transform="translate(0,0)"/>
<path d="" fill="#181718" transform="translate(0,0)"/>
<path d="" fill="#171517" transform="translate(0,0)"/>
<path d="" fill="#141411" transform="translate(0,0)"/>
<path d="" fill="#191714" transform="translate(0,0)"/>
<path d="" fill="#171917" transform="translate(0,0)"/>
<path d="" fill="#131414" transform="translate(0,0)"/>
<path d="" fill="#111312" transform="translate(0,0)"/>
<path d="" fill="#141110" transform="translate(0,0)"/>
<path d="" fill="#151512" transform="translate(0,0)"/>
<path d="" fill="#121515" transform="translate(0,0)"/>
<path d="" fill="#101112" transform="translate(0,0)"/>
<path d="" fill="#111111" transform="translate(0,0)"/>
<path d="" fill="#121310" transform="translate(0,0)"/>
<path d="" fill="#131414" transform="translate(0,0)"/>
<path d="" fill="#101111" transform="translate(0,0)"/>
<path d="" fill="#131112" transform="translate(0,0)"/>
<path d="" fill="#161612" transform="translate(0,0)"/>
<path d="" fill="#141412" transform="translate(0,0)"/>
<path d="" fill="#141515" transform="translate(0,0)"/>
<path d="" fill="#141513" transform="translate(0,0)"/>
<path d="" fill="#121513" transform="translate(0,0)"/>
<path d="" fill="#131313" transform="translate(0,0)"/>
<path d="" fill="#131516" transform="translate(0,0)"/>
<path d="" fill="#131112" transform="translate(0,0)"/>
<path d="" fill="#131312" transform="translate(0,0)"/>
<path d="" fill="#171313" transform="translate(0,0)"/>
<path d="" fill="#111212" transform="translate(0,0)"/>
<path d="" fill="#171615" transform="translate(0,0)"/>
<path d="" fill="#111111" transform="translate(0,0)"/>
<path d="" fill="#131314" transform="translate(0,0)"/>
<path d="" fill="#131012" transform="translate(0,0)"/>
<path d="" fill="#141212" transform="translate(0,0)"/>
<path d="" fill="#111111" transform="translate(0,0)"/>
<path d="" fill="#11110F" transform="translate(0,0)"/>
<path d="" fill="#111111" transform="translate(0,0)"/>
<path d="" fill="#101112" transform="translate(0,0)"/>
<path d="" fill="#141514" transform="translate(0,0)"/>
<path d="" fill="#131214" transform="translate(0,0)"/>
<path d="" fill="#111110" transform="translate(0,0)"/>
<path d="" fill="#101011" transform="translate(0,0)"/>
<path d="" fill="#111011" transform="translate(0,0)"/>
<path d="" fill="#121211" transform="translate(0,0)"/>
<path d="" fill="#141314" transform="translate(0,0)"/>
<path d="" fill="#161314" transform="translate(0,0)"/>
<path d="" fill="#110F11" transform="translate(0,0)"/>
<path d="" fill="#121210" transform="translate(0,0)"/>
<path d="" fill="#131514" transform="translate(0,0)"/>
<path d="" fill="#161217" transform="translate(0,0)"/>
<path d="" fill="#111011" transform="translate(0,0)"/>
<path d="" fill="#141413" transform="translate(0,0)"/>
<path d="" fill="#0F1010" transform="translate(0,0)"/>
<path d="" fill="#131211" transform="translate(0,0)"/>
<path d="" fill="#141413" transform="translate(0,0)"/>
<path d="" fill="#141411" transform="translate(0,0)"/>
<path d="" fill="#121415" transform="translate(0,0)"/>
<path d="" fill="#151413" transform="translate(0,0)"/>
<path d="" fill="#171617" transform="translate(0,0)"/>
<path d="" fill="#141315" transform="translate(0,0)"/>
<path d="" fill="#131414" transform="translate(0,0)"/>
<path d="" fill="#141516" transform="translate(0,0)"/>
<path d="" fill="#121111" transform="translate(0,0)"/>
<path d="" fill="#141312" transform="translate(0,0)"/>
<path d="" fill="#403F40" transform="translate(0,0)"/>
<path d="" fill="#151617" transform="translate(0,0)"/>
<path d="" fill="#161313" transform="translate(0,0)"/>
<path d="" fill="#151312" transform="translate(0,0)"/>
<path d="" fill="#151413" transform="translate(0,0)"/>
<path d="" fill="#151514" transform="translate(0,0)"/>
<path d="" fill="#141515" transform="translate(0,0)"/>
<path d="" fill="#141316" transform="translate(0,0)"/>
<path d="" fill="#131114" transform="translate(0,0)"/>
<path d="" fill="#141414" transform="translate(0,0)"/>
<path d="" fill="#111314" transform="translate(0,0)"/>
<path d="" fill="#121312" transform="translate(0,0)"/>
<path d="" fill="#141413" transform="translate(0,0)"/>
<path d="" fill="#111112" transform="translate(0,0)"/>
<path d="" fill="#0E0E0F" transform="translate(0,0)"/>
<path d="" fill="#131113" transform="translate(0,0)"/>
<path d="" fill="#121312" transform="translate(0,0)"/>
<path d="" fill="#0D0F10" transform="translate(0,0)"/>
<path d="" fill="#141311" transform="translate(0,0)"/>
<path d="" fill="#151414" transform="translate(0,0)"/>
<path d="" fill="#131214" transform="translate(0,0)"/>
<path d="" fill="#121411" transform="translate(0,0)"/>
<path d="" fill="#121212" transform="translate(0,0)"/>
<path d="" fill="#111412" transform="translate(0,0)"/>
<path d="" fill="#151213" transform="translate(0,0)"/>
<path d="" fill="#101313" transform="translate(0,0)"/>
<path d="" fill="#131215" transform="translate(0,0)"/>
<path d="" fill="#131514" transform="translate(0,0)"/>
<path d="" fill="#111415" transform="translate(0,0)"/>
<path d="" fill="#141514" transform="translate(0,0)"/>
<path d="" fill="#131415" transform="translate(0,0)"/>
<path d="" fill="#111010" transform="translate(0,0)"/>
<path d="" fill="#161716" transform="translate(0,0)"/>
<path d="" fill="#131414" transform="translate(0,0)"/>
<path d="" fill="#141110" transform="translate(0,0)"/>
<path d="" fill="#131111" transform="translate(0,0)"/>
<path d="" fill="#171617" transform="translate(0,0)"/>
<path d="" fill="#161512" transform="translate(0,0)"/>
<path d="" fill="#121411" transform="translate(0,0)"/>
<path d="" fill="#121412" transform="translate(0,0)"/>
<path d="" fill="#131211" transform="translate(0,0)"/>
<path d="" fill="#0E1211" transform="translate(0,0)"/>
<path d="" fill="#121011" transform="translate(0,0)"/>
<path d="" fill="#151213" transform="translate(0,0)"/>
<path d="" fill="#141212" transform="translate(0,0)"/>
<path d="" fill="#0D0F11" transform="translate(0,0)"/>
<path d="" fill="#100F0F" transform="translate(0,0)"/>
<path d="" fill="#131515" transform="translate(0,0)"/>
<path d="" fill="#101211" transform="translate(0,0)"/>
<path d="" fill="#101013" transform="translate(0,0)"/>
<path d="" fill="#151716" transform="translate(0,0)"/>
<path d="" fill="#151314" transform="translate(0,0)"/>
<path d="" fill="#121115" transform="translate(0,0)"/>
<path d="" fill="#101110" transform="translate(0,0)"/>
<path d="" fill="#121612" transform="translate(0,0)"/>
<path d="" fill="#141414" transform="translate(0,0)"/>
<path d="" fill="#131414" transform="translate(0,0)"/>
<path d="" fill="#10100F" transform="translate(0,0)"/>
<path d="" fill="#161614" transform="translate(0,0)"/>
<path d="" fill="#141413" transform="translate(0,0)"/>
<path d="" fill="#111110" transform="translate(0,0)"/>
<path d="" fill="#10100F" transform="translate(0,0)"/>
<path d="" fill="#0F1110" transform="translate(0,0)"/>
<path d="" fill="#130F12" transform="translate(0,0)"/>
<path d="" fill="#121212" transform="translate(0,0)"/>
<path d="" fill="#131411" transform="translate(0,0)"/>
<path d="" fill="#141512" transform="translate(0,0)"/>
<path d="" fill="#161413" transform="translate(0,0)"/>
<path d="" fill="#151414" transform="translate(0,0)"/>
<path d="" fill="#141413" transform="translate(0,0)"/>
<path d="" fill="#111312" transform="translate(0,0)"/>
<path d="" fill="#161414" transform="translate(0,0)"/>
<path d="" fill="#111311" transform="translate(0,0)"/>
<path d="" fill="#151514" transform="translate(0,0)"/>
<path d="" fill="#181716" transform="translate(0,0)"/>
<path d="" fill="#151616" transform="translate(0,0)"/>
<path d="" fill="#2B2B2B" transform="translate(0,0)"/>
<path d="" fill="#151112" transform="translate(0,0)"/>
<path d="" fill="#161616" transform="translate(0,0)"/>
<path d="" fill="#121412" transform="translate(0,0)"/>
<path d="" fill="#191719" transform="translate(0,0)"/>
<path d="" fill="#161816" transform="translate(0,0)"/>
<path d="" fill="#141616" transform="translate(0,0)"/>
<path d="" fill="#151615" transform="translate(0,0)"/>
<path d="" fill="#110F12" transform="translate(0,0)"/>
<path d="" fill="#191817" transform="translate(0,0)"/>
<path d="" fill="#161916" transform="translate(0,0)"/>
<path d="" fill="#0E100F" transform="translate(0,0)"/>
<path d="" fill="#181819" transform="translate(0,0)"/>
<path d="" fill="#111213" transform="translate(0,0)"/>
<path d="" fill="#131212" transform="translate(0,0)"/>
<path d="" fill="#171918" transform="translate(0,0)"/>
<path d="" fill="#1D1E1D" transform="translate(0,0)"/>
<path d="" fill="#141310" transform="translate(0,0)"/>
<path d="" fill="#111112" transform="translate(0,0)"/>
<path d="" fill="#1D1B1C" transform="translate(0,0)"/>
<path d="" fill="#151414" transform="translate(0,0)"/>
<path d="" fill="#121513" transform="translate(0,0)"/>
<path d="" fill="#161315" transform="translate(0,0)"/>
<path d="" fill="#1D1D1D" transform="translate(0,0)"/>
<path d="" fill="#161617" transform="translate(0,0)"/>
<path d="" fill="#151617" transform="translate(0,0)"/>
<path d="" fill="#606060" transform="translate(0,0)"/>
<path d="" fill="#191716" transform="translate(0,0)"/>
<path d="" fill="#181919" transform="translate(0,0)"/>
<path d="" fill="#242425" transform="translate(0,0)"/>
<path d="" fill="#17191B" transform="translate(0,0)"/>
<path d="" fill="#171816" transform="translate(0,0)"/>
<path d="" fill="#1C1B1B" transform="translate(0,0)"/>
<path d="" fill="#535351" transform="translate(0,0)"/>
<path d="" fill="#6B6B6C" transform="translate(0,0)"/>
</svg>
